<svg width="67" height="63" viewBox="0 0 67 63" fill="none" xmlns="http://www.w3.org/2000/svg">
<path fill-rule="evenodd" clip-rule="evenodd" d="M3.56967 0.181818C3.56967 0.319273 3.50835 0.363909 3.31796 0.364637C2.73657 0.366909 2.37978 0.474818 2.37978 0.648273C2.37978 0.768909 2.31342 0.818182 2.15096 0.818182C1.98318 0.818182 1.92213 0.866636 1.92213 1C1.92213 1.15155 1.86108 1.18182 1.55601 1.18182H1.18989V1.59091C1.18989 1.93936 1.1628 2 1.00683 2C0.884821 2 0.823771 2.06064 0.823771 2.18182C0.823771 2.29882 0.76272 2.36364 0.652701 2.36364C0.478062 2.36364 0.369415 2.718 0.367127 3.29545C0.366395 3.48455 0.321454 3.54545 0.18306 3.54545C0.000823765 3.54545 0 3.60609 0 17.0455C0 30.4848 0.000823765 30.5455 0.18306 30.5455C0.343421 30.5455 0.36612 30.6061 0.36612 31.0341C0.36612 31.7763 0.451243 32.0909 0.652152 32.0909C0.791369 32.0909 0.823771 32.1596 0.823771 32.4545C0.823771 32.7575 0.85425 32.8182 1.00683 32.8182C1.14111 32.8182 1.18989 32.8788 1.18989 33.0455C1.18989 33.2155 1.23813 33.2727 1.38155 33.2727C1.49304 33.2727 1.59226 33.3452 1.6188 33.4462C1.64388 33.5415 1.74301 33.64 1.83902 33.6649C1.94071 33.6913 2.01366 33.7898 2.01366 33.9005C2.01366 34.0303 2.07197 34.0909 2.19672 34.0909C2.31653 34.0909 2.37978 34.1515 2.37978 34.2664C2.37978 34.3792 2.45337 34.4523 2.58572 34.4709C2.71808 34.4896 2.8021 34.5731 2.82096 34.7045C2.83972 34.836 2.91331 34.9091 3.0269 34.9091C3.1425 34.9091 3.20355 34.9719 3.20355 35.0909C3.20355 35.2121 3.2646 35.2727 3.38661 35.2727C3.50862 35.2727 3.56967 35.3334 3.56967 35.4545C3.56967 35.5735 3.63072 35.6364 3.74633 35.6364C3.85991 35.6364 3.9335 35.7095 3.95227 35.8409C3.97112 35.9724 4.05515 36.0558 4.1875 36.0745C4.31985 36.0932 4.39344 36.1663 4.39344 36.2791C4.39344 36.3939 4.45669 36.4545 4.5765 36.4545C4.69632 36.4545 4.75956 36.5152 4.75956 36.63C4.75956 36.7428 4.83315 36.8159 4.96551 36.8345C5.09786 36.8533 5.18188 36.9367 5.20074 37.0682C5.2195 37.1996 5.29309 37.2727 5.40668 37.2727C5.52228 37.2727 5.58333 37.3355 5.58333 37.4545C5.58333 37.5735 5.64438 37.6364 5.75999 37.6364C5.87358 37.6364 5.94717 37.7095 5.96593 37.8409C5.98478 37.9724 6.06881 38.0558 6.20116 38.0745C6.33351 38.0932 6.4071 38.1663 6.4071 38.2791C6.4071 38.3939 6.47035 38.4545 6.59016 38.4545C6.71217 38.4545 6.77322 38.5152 6.77322 38.6364C6.77322 38.7554 6.83427 38.8182 6.94988 38.8182C7.06347 38.8182 7.13706 38.8913 7.15582 39.0227C7.17467 39.1542 7.2587 39.2376 7.39105 39.2564C7.5234 39.275 7.59699 39.3481 7.59699 39.4609C7.59699 39.5757 7.66024 39.6364 7.78005 39.6364C7.89987 39.6364 7.96311 39.697 7.96311 39.8118C7.96311 39.9246 8.03671 39.9977 8.16906 40.0164C8.30141 40.0351 8.38544 40.1185 8.40429 40.25C8.42305 40.3815 8.49664 40.4545 8.61023 40.4545C8.72584 40.4545 8.78689 40.5174 8.78689 40.6364C8.78689 40.7575 8.84794 40.8182 8.96994 40.8182C9.0947 40.8182 9.15301 40.8788 9.15301 41.0085C9.15301 41.1193 9.22596 41.2178 9.32765 41.2442C9.42366 41.2691 9.52279 41.3675 9.54787 41.4629C9.57441 41.5639 9.67363 41.6364 9.78511 41.6364C9.91573 41.6364 9.97678 41.6943 9.97678 41.8182C9.97678 41.9394 10.0378 42 10.1598 42C10.2796 42 10.3429 42.0606 10.3429 42.1755C10.3429 42.2883 10.4165 42.3614 10.5488 42.38C10.6812 42.3987 10.7652 42.4822 10.7841 42.6136C10.8028 42.7451 10.8764 42.8182 10.99 42.8182C11.1056 42.8182 11.1667 42.881 11.1667 43C11.1667 43.119 11.2277 43.1818 11.3433 43.1818C11.4569 43.1818 11.5305 43.2549 11.5493 43.3864C11.5681 43.5178 11.6521 43.6013 11.7845 43.62C11.9168 43.6386 11.9904 43.7117 11.9904 43.8245C11.9904 43.9394 12.0537 44 12.1735 44C12.2955 44 12.3566 44.0606 12.3566 44.1818C12.3566 44.3008 12.4176 44.3636 12.5332 44.3636C12.6468 44.3636 12.7204 44.4367 12.7392 44.5682C12.758 44.6996 12.842 44.7831 12.9744 44.8018C13.1067 44.8205 13.1803 44.8935 13.1803 45.0064C13.1803 45.1212 13.2436 45.1818 13.3634 45.1818C13.4832 45.1818 13.5464 45.2425 13.5464 45.3573C13.5464 45.4701 13.62 45.5432 13.7524 45.5618C13.8847 45.5805 13.9688 45.664 13.9876 45.7955C14.0064 45.9269 14.08 46 14.1936 46C14.3092 46 14.3702 46.0628 14.3702 46.1818C14.3702 46.303 14.4313 46.3636 14.5533 46.3636C14.678 46.3636 14.7363 46.4243 14.7363 46.554C14.7363 46.6647 14.8093 46.7633 14.911 46.7896C15.007 46.8145 15.1061 46.913 15.1312 47.0084C15.1577 47.1094 15.257 47.1818 15.3684 47.1818C15.4991 47.1818 15.5601 47.2397 15.5601 47.3636C15.5601 47.4848 15.6212 47.5455 15.7432 47.5455C15.863 47.5455 15.9262 47.6061 15.9262 47.7209C15.9262 47.8337 15.9998 47.9068 16.1322 47.9255C16.2645 47.9442 16.3486 48.0276 16.3674 48.1591C16.3862 48.2905 16.4598 48.3636 16.5733 48.3636C16.6889 48.3636 16.75 48.4265 16.75 48.5455C16.75 48.6645 16.8111 48.7273 16.9267 48.7273C17.0402 48.7273 17.1138 48.8004 17.1326 48.9318C17.1515 49.0633 17.2355 49.1467 17.3678 49.1655C17.5002 49.1841 17.5738 49.2572 17.5738 49.37C17.5738 49.4848 17.637 49.5455 17.7568 49.5455C17.8788 49.5455 17.9399 49.6061 17.9399 49.7273C17.9399 49.8463 18.0009 49.9091 18.1165 49.9091C18.2301 49.9091 18.3037 49.9822 18.3225 50.1136C18.3413 50.2451 18.4254 50.3285 18.5577 50.3473C18.6901 50.3659 18.7637 50.439 18.7637 50.5518C18.7637 50.6666 18.8269 50.7273 18.9467 50.7273C19.0665 50.7273 19.1298 50.7879 19.1298 50.9027C19.1298 51.0155 19.2034 51.0886 19.3357 51.1073C19.4681 51.126 19.5521 51.2095 19.571 51.3409C19.5897 51.4724 19.6633 51.5455 19.7769 51.5455C19.8925 51.5455 19.9536 51.6083 19.9536 51.7273C19.9536 51.8463 20.0146 51.9091 20.1302 51.9091C20.2438 51.9091 20.3174 51.9822 20.3361 52.1136C20.355 52.2451 20.439 52.3285 20.5714 52.3473C20.7037 52.3659 20.7773 52.439 20.7773 52.5518C20.7773 52.6666 20.8406 52.7273 20.9604 52.7273C21.0947 52.7273 21.1434 52.7879 21.1434 52.9545C21.1434 53.1165 21.193 53.1818 21.3158 53.1818C21.4113 53.1818 21.5096 53.263 21.5361 53.3636C21.5648 53.4725 21.661 53.5455 21.7755 53.5455C21.9062 53.5455 21.9672 53.6034 21.9672 53.7273C21.9672 53.8485 22.0283 53.9091 22.1503 53.9091C22.2723 53.9091 22.3333 53.9697 22.3333 54.0909C22.3333 54.2099 22.3944 54.2727 22.51 54.2727C22.6236 54.2727 22.6972 54.3458 22.7159 54.4773C22.7348 54.6087 22.8188 54.6922 22.9512 54.7109C23.0835 54.7295 23.1571 54.8026 23.1571 54.9155C23.1571 55.0303 23.2204 55.0909 23.3402 55.0909C23.4649 55.0909 23.5232 55.1515 23.5232 55.2813C23.5232 55.392 23.5962 55.4905 23.6979 55.5169C23.7939 55.5418 23.893 55.6403 23.9181 55.7356C23.9446 55.8366 24.0438 55.9091 24.1553 55.9091C24.2859 55.9091 24.347 55.967 24.347 56.0909C24.347 56.2121 24.408 56.2727 24.5301 56.2727C24.6499 56.2727 24.7131 56.3334 24.7131 56.4482C24.7131 56.561 24.7867 56.6341 24.9191 56.6527C25.0514 56.6715 25.1354 56.7549 25.1543 56.8864C25.1731 57.0178 25.2466 57.0909 25.3602 57.0909C25.4758 57.0909 25.5369 57.1537 25.5369 57.2727C25.5369 57.3917 25.5979 57.4545 25.7135 57.4545C25.8271 57.4545 25.9007 57.5276 25.9195 57.6591C25.9383 57.7905 26.0224 57.874 26.1547 57.8927C26.2871 57.9114 26.3607 57.9845 26.3607 58.0973C26.3607 58.2121 26.4239 58.2727 26.5437 58.2727C26.6657 58.2727 26.7268 58.3334 26.7268 58.4545C26.7268 58.5757 26.7878 58.6364 26.9098 58.6364C27.0296 58.6364 27.0929 58.697 27.0929 58.8118C27.0929 58.9246 27.1665 58.9977 27.2988 59.0164C27.4312 59.0351 27.5152 59.1185 27.5341 59.25C27.5528 59.3815 27.6264 59.4545 27.74 59.4545C27.8556 59.4545 27.9167 59.5174 27.9167 59.6364C27.9167 59.7554 27.9777 59.8182 28.0933 59.8182C28.2069 59.8182 28.2805 59.8913 28.2993 60.0227C28.3181 60.1542 28.4021 60.2376 28.5345 60.2564C28.6668 60.275 28.7404 60.3481 28.7404 60.4609C28.7404 60.5757 28.8037 60.6364 28.9235 60.6364C29.0455 60.6364 29.1066 60.697 29.1066 60.8182C29.1066 60.9372 29.1676 61 29.2832 61C29.3968 61 29.4704 61.0731 29.4892 61.2045C29.508 61.336 29.592 61.4195 29.7244 61.4382C29.8567 61.4568 29.9303 61.5299 29.9303 61.6427C29.9303 61.7575 29.9936 61.8182 30.1134 61.8182C30.2317 61.8182 30.2964 61.8788 30.2964 61.9896C30.2964 62.1233 30.3875 62.1747 30.7083 62.2225C31.0336 62.271 31.1202 62.3209 31.1202 62.4601C31.1202 62.5875 31.1836 62.6364 31.349 62.6364C31.5168 62.6364 31.5779 62.6848 31.5779 62.8182C31.5779 62.9944 31.6389 63 33.5458 63C35.4225 63 35.5137 62.9919 35.5137 62.8262C35.5137 62.6942 35.6019 62.6375 35.8798 62.5909C36.1577 62.5443 36.2459 62.4876 36.2459 62.3556C36.2459 62.2308 36.3104 62.1818 36.4747 62.1818C36.6425 62.1818 36.7036 62.1334 36.7036 62C36.7036 61.8788 36.7646 61.8182 36.8866 61.8182C37.0064 61.8182 37.0697 61.7575 37.0697 61.6427C37.0697 61.5299 37.1433 61.4568 37.2756 61.4382C37.408 61.4195 37.492 61.336 37.5108 61.2045C37.5296 61.0731 37.6032 61 37.7168 61C37.8324 61 37.8934 60.9372 37.8934 60.8182C37.8934 60.697 37.9545 60.6364 38.0765 60.6364C38.1963 60.6364 38.2596 60.5757 38.2596 60.4609C38.2596 60.3481 38.3332 60.275 38.4655 60.2564C38.5979 60.2376 38.6819 60.1542 38.7007 60.0227C38.7195 59.8913 38.7931 59.8182 38.9067 59.8182C39.0223 59.8182 39.0833 59.7554 39.0833 59.6364C39.0833 59.5152 39.1444 59.4545 39.2664 59.4545C39.3862 59.4545 39.4495 59.3939 39.4495 59.2791C39.4495 59.1663 39.523 59.0932 39.6554 59.0745C39.7878 59.0558 39.8718 58.9724 39.8906 58.8409C39.9094 58.7095 39.983 58.6364 40.0966 58.6364C40.2122 58.6364 40.2732 58.5735 40.2732 58.4545C40.2732 58.3306 40.3343 58.2727 40.4649 58.2727C40.5764 58.2727 40.6756 58.2003 40.7021 58.0993C40.7272 58.0039 40.8263 57.9055 40.9224 57.8805C41.024 57.8542 41.097 57.7556 41.097 57.6449C41.097 57.5152 41.1553 57.4545 41.2801 57.4545C41.4021 57.4545 41.4631 57.3939 41.4631 57.2727C41.4631 57.1537 41.5242 57.0909 41.6398 57.0909C41.7534 57.0909 41.8269 57.0178 41.8457 56.8864C41.8646 56.7549 41.9486 56.6715 42.0809 56.6527C42.2133 56.6341 42.2869 56.561 42.2869 56.4482C42.2869 56.3334 42.3501 56.2727 42.4699 56.2727C42.5898 56.2727 42.653 56.2121 42.653 56.0973C42.653 55.9845 42.7266 55.9114 42.8589 55.8927C42.9913 55.874 43.0753 55.7905 43.0942 55.6591C43.1129 55.5276 43.1865 55.4545 43.3001 55.4545C43.4157 55.4545 43.4768 55.3917 43.4768 55.2727C43.4768 55.1394 43.5378 55.0909 43.7056 55.0909C43.8687 55.0909 43.9344 55.0417 43.9344 54.9197C43.9344 54.8249 44.0162 54.7273 44.1175 54.7009C44.227 54.6725 44.3005 54.5769 44.3005 54.4631C44.3005 54.3334 44.3589 54.2727 44.4836 54.2727C44.6056 54.2727 44.6667 54.2121 44.6667 54.0909C44.6667 53.9719 44.7277 53.9091 44.8433 53.9091C44.9569 53.9091 45.0305 53.836 45.0493 53.7045C45.0681 53.5731 45.1521 53.4896 45.2845 53.4709C45.4168 53.4523 45.4904 53.3792 45.4904 53.2664C45.4904 53.1515 45.5537 53.0909 45.6735 53.0909C45.7933 53.0909 45.8566 53.0303 45.8566 52.9155C45.8566 52.8026 45.9301 52.7295 46.0625 52.7109C46.1949 52.6922 46.2789 52.6087 46.2977 52.4773C46.3165 52.3458 46.3901 52.2727 46.5037 52.2727C46.6193 52.2727 46.6803 52.2099 46.6803 52.0909C46.6803 51.9697 46.7414 51.9091 46.8634 51.9091C46.9832 51.9091 47.0464 51.8485 47.0464 51.7336C47.0464 51.6208 47.12 51.5477 47.2524 51.5291C47.3847 51.5104 47.4688 51.4269 47.4876 51.2955C47.5064 51.164 47.58 51.0909 47.6936 51.0909C47.8092 51.0909 47.8702 51.0281 47.8702 50.9091C47.8702 50.7901 47.9313 50.7273 48.0469 50.7273C48.1605 50.7273 48.2341 50.6542 48.2528 50.5227C48.2717 50.3913 48.3557 50.3078 48.488 50.2891C48.6204 50.2705 48.694 50.1974 48.694 50.0845C48.694 49.9697 48.7572 49.9091 48.877 49.9091C48.9991 49.9091 49.0601 49.8485 49.0601 49.7273C49.0601 49.5939 49.1212 49.5455 49.2889 49.5455C49.452 49.5455 49.5178 49.4963 49.5178 49.3743C49.5178 49.2795 49.5995 49.1818 49.7008 49.1555C49.8104 49.127 49.8839 49.0315 49.8839 48.9176C49.8839 48.7879 49.9422 48.7273 50.0669 48.7273C50.1889 48.7273 50.25 48.6666 50.25 48.5455C50.25 48.4265 50.3111 48.3636 50.4267 48.3636C50.5402 48.3636 50.6138 48.2905 50.6326 48.1591C50.6515 48.0276 50.7355 47.9442 50.8678 47.9255C51.0002 47.9068 51.0738 47.8337 51.0738 47.7209C51.0738 47.6061 51.137 47.5455 51.2568 47.5455C51.3766 47.5455 51.4399 47.4848 51.4399 47.37C51.4399 47.2572 51.5135 47.1841 51.6458 47.1655C51.7782 47.1467 51.8622 47.0633 51.8811 46.9318C51.8998 46.8004 51.9734 46.7273 52.087 46.7273C52.2026 46.7273 52.2637 46.6645 52.2637 46.5455C52.2637 46.4243 52.3247 46.3636 52.4467 46.3636C52.5665 46.3636 52.6298 46.303 52.6298 46.1882C52.6298 46.0754 52.7034 46.0023 52.8357 45.9836C52.9681 45.9649 53.0521 45.8815 53.071 45.75C53.0897 45.6185 53.1633 45.5455 53.2769 45.5455C53.3925 45.5455 53.4536 45.4826 53.4536 45.3636C53.4536 45.2425 53.5146 45.1818 53.6366 45.1818C53.7614 45.1818 53.8197 45.1212 53.8197 44.9915C53.8197 44.8812 53.8925 44.7823 53.9929 44.7562C54.2054 44.701 54.2773 44.3804 54.2773 43.4886C54.2773 42.8891 54.2588 42.8182 54.1023 42.8182C53.9703 42.8182 53.9125 42.7314 53.8672 42.4646C53.8156 42.1618 53.7669 42.1032 53.5273 42.0555C53.3735 42.025 53.1292 42 52.9845 42C52.7824 42 52.7213 41.9578 52.7213 41.8182C52.7213 41.6848 52.6603 41.6364 52.4925 41.6364C52.3247 41.6364 52.2637 41.6848 52.2637 41.8182C52.2637 41.9731 52.2026 42 51.8518 42C51.5073 42 51.4399 42.0285 51.4399 42.1738C51.4399 42.3052 51.3522 42.3624 51.0806 42.4079C50.7499 42.4635 50.7167 42.496 50.6619 42.8182C50.6071 43.1404 50.5738 43.1729 50.2431 43.2285C49.9716 43.274 49.8839 43.3312 49.8839 43.4625C49.8839 43.5757 49.8201 43.6364 49.7008 43.6364C49.5788 43.6364 49.5178 43.697 49.5178 43.8182C49.5178 43.9515 49.4567 44 49.2889 44C49.0838 44 49.0601 44.0369 49.0601 44.3556C49.0601 44.6985 49.0473 44.7135 48.7009 44.7715C48.3702 44.8271 48.3369 44.8596 48.2821 45.1818C48.2273 45.504 48.194 45.5365 47.8634 45.5921C47.5918 45.6376 47.5041 45.6948 47.5041 45.8262C47.5041 45.9394 47.4403 46 47.321 46C47.199 46 47.138 46.0606 47.138 46.1818C47.138 46.3152 47.0769 46.3636 46.9092 46.3636C46.704 46.3636 46.6803 46.4005 46.6803 46.7193C46.6803 47.0622 46.6675 47.0771 46.3211 47.1352C45.9904 47.1907 45.9571 47.2233 45.9023 47.5455C45.8478 47.8662 45.8134 47.9004 45.4904 47.9545C45.1675 48.0087 45.1331 48.0429 45.0786 48.3636C45.024 48.6844 44.9896 48.7185 44.6667 48.7727C44.3423 48.8272 44.3095 48.8602 44.2536 49.1886C44.1972 49.5202 44.1713 49.5455 43.8887 49.5455C43.606 49.5455 43.5801 49.5707 43.5237 49.9023C43.4678 50.231 43.4352 50.2637 43.1092 50.3185C42.839 50.3638 42.7487 50.4245 42.7271 50.5753C42.7092 50.6997 42.6226 50.7835 42.4928 50.8018C42.3605 50.8205 42.2869 50.8935 42.2869 51.0064C42.2869 51.1185 42.2237 51.1818 42.1119 51.1818C41.979 51.1818 41.922 51.2695 41.875 51.5455C41.8151 51.8973 41.8015 51.9091 41.4551 51.9091C41.1342 51.9091 41.097 51.9326 41.097 52.1364C41.097 52.303 41.0482 52.3636 40.9139 52.3636C40.7919 52.3636 40.7309 52.4243 40.7309 52.5455C40.7309 52.6645 40.6698 52.7273 40.5542 52.7273C40.4406 52.7273 40.367 52.8004 40.3483 52.9318C40.3294 53.0633 40.2454 53.1467 40.113 53.1655C39.9807 53.1841 39.9071 53.2572 39.9071 53.37C39.9071 53.4848 39.8439 53.5455 39.724 53.5455C39.602 53.5455 39.541 53.6061 39.541 53.7273C39.541 53.8463 39.4799 53.9091 39.3643 53.9091C39.2507 53.9091 39.1772 53.9822 39.1584 54.1136C39.1399 54.2425 39.0556 54.3285 38.9303 54.3463C38.7776 54.3679 38.7173 54.4576 38.6705 54.7326C38.6118 55.0784 38.597 55.0909 38.2515 55.0909C37.8961 55.0909 37.8934 55.0935 37.8934 55.4465C37.8934 55.7895 37.8806 55.8044 37.5342 55.8625C37.2035 55.918 37.1703 55.9505 37.1154 56.2727C37.0606 56.5949 37.0274 56.6275 36.6967 56.683C36.4251 56.7285 36.3374 56.7857 36.3374 56.9171C36.3374 57.0282 36.2737 57.0909 36.1608 57.0909C36.0472 57.0909 35.9736 57.164 35.9548 57.2955C35.936 57.4269 35.852 57.5104 35.7196 57.5291C35.5526 57.5526 35.5137 57.616 35.5137 57.8644C35.5137 58.1577 35.4962 58.1733 35.1018 58.232C34.6976 58.2923 34.6899 58.2997 34.6899 58.6354C34.6899 58.9455 34.6633 58.9825 34.4039 59.0341C34.0352 59.1074 32.9648 59.1074 32.5961 59.0341C32.3348 58.9822 32.3101 58.9468 32.3101 58.625C32.3101 58.2759 32.3068 58.2727 31.952 58.2727C31.6068 58.2727 31.5918 58.26 31.5333 57.9159C31.4774 57.5875 31.4446 57.5545 31.1202 57.5C30.7973 57.4458 30.7629 57.4116 30.7083 57.0909C30.6535 56.7687 30.6203 56.7362 30.2896 56.6806C29.9456 56.6229 29.9303 56.6058 29.9303 56.2764C29.9303 55.9455 29.9164 55.9301 29.5651 55.8744C29.2235 55.8201 29.1962 55.7929 29.1415 55.4536C29.0854 55.1047 29.0699 55.0909 28.7368 55.0909C28.4051 55.0909 28.3879 55.0757 28.3297 54.7341C28.2738 54.4056 28.241 54.3726 27.9167 54.3182C27.5937 54.264 27.5593 54.2298 27.5048 53.9091C27.45 53.5869 27.4167 53.5544 27.086 53.4988C26.7396 53.4407 26.7268 53.4258 26.7268 53.0829C26.7268 52.7299 26.7241 52.7273 26.3687 52.7273C26.0235 52.7273 26.0084 52.7146 25.95 52.3705C25.894 52.042 25.8613 52.009 25.5369 51.9545C25.214 51.9004 25.1796 51.8662 25.125 51.5455C25.0704 51.2247 25.036 51.1905 24.7131 51.1364C24.3887 51.0819 24.356 51.0489 24.3 50.7205C24.2416 50.3764 24.2265 50.3636 23.8813 50.3636H23.5232V49.9545V49.5455H23.1652C22.8199 49.5455 22.8049 49.5327 22.7464 49.1886C22.6905 48.8602 22.6577 48.8272 22.3333 48.7727C22.0104 48.7185 21.976 48.6844 21.9214 48.3636C21.8666 48.0415 21.8334 48.0089 21.5027 47.9534C21.1587 47.8956 21.1434 47.8785 21.1434 47.5491C21.1434 47.2182 21.1295 47.2028 20.7782 47.1471C20.4366 47.0928 20.4093 47.0656 20.3546 46.7264C20.3056 46.4215 20.2616 46.3636 20.0791 46.3636C19.9231 46.3636 19.862 46.3125 19.862 46.1818C19.862 46.0606 19.801 46 19.679 46C19.557 46 19.4959 45.9394 19.4959 45.8182C19.4959 45.697 19.4349 45.6364 19.3128 45.6364C19.1786 45.6364 19.1298 45.5757 19.1298 45.4091C19.1298 45.2273 19.084 45.1818 18.901 45.1818C18.7367 45.1818 18.6721 45.1328 18.6721 45.008C18.6721 44.876 18.5839 44.8194 18.306 44.7727C17.9518 44.7133 17.9399 44.6997 17.9399 44.3556C17.9399 44.0026 17.9372 44 17.5818 44C17.2366 44 17.2216 43.9873 17.1631 43.6432C17.1072 43.3147 17.0744 43.2817 16.75 43.2273C16.4271 43.1731 16.3927 43.1389 16.3381 42.8182C16.2833 42.496 16.2501 42.4635 15.9194 42.4079C15.5729 42.3498 15.5601 42.3349 15.5601 41.992C15.5601 41.6733 15.5364 41.6364 15.3313 41.6364C15.1635 41.6364 15.1025 41.5879 15.1025 41.4545C15.1025 41.3334 15.0414 41.2727 14.9194 41.2727C14.7851 41.2727 14.7363 41.2121 14.7363 41.0455C14.7363 40.8417 14.6992 40.8182 14.3783 40.8182C14.0318 40.8182 14.0182 40.8064 13.9583 40.4545C13.9114 40.1785 13.8544 40.0909 13.7215 40.0909C13.5958 40.0909 13.5464 40.0268 13.5464 39.8636C13.5464 39.6818 13.5007 39.6364 13.3176 39.6364C13.1498 39.6364 13.0888 39.5879 13.0888 39.4545C13.0888 39.3334 13.0277 39.2727 12.9057 39.2727C12.7837 39.2727 12.7227 39.2121 12.7227 39.0909C12.7227 38.9697 12.6616 38.9091 12.5396 38.9091C12.4053 38.9091 12.3566 38.8485 12.3566 38.6818C12.3566 38.5 12.3108 38.4545 12.1277 38.4545C11.96 38.4545 11.8989 38.4061 11.8989 38.2727C11.8989 38.1515 11.8379 38.0909 11.7158 38.0909C11.5966 38.0909 11.5328 38.0303 11.5328 37.9171C11.5328 37.7857 11.4451 37.7285 11.1735 37.683C10.8415 37.6273 10.8097 37.5957 10.7536 37.2659C10.7077 36.9962 10.6502 36.9091 10.5179 36.9091C10.4039 36.9091 10.3429 36.8457 10.3429 36.7273C10.3429 36.6061 10.2818 36.5455 10.1598 36.5455C10.0256 36.5455 9.97678 36.4848 9.97678 36.3182C9.97678 36.1364 9.93101 36.0909 9.74795 36.0909C9.58018 36.0909 9.51913 36.0425 9.51913 35.9091C9.51913 35.7879 9.45808 35.7273 9.33607 35.7273C9.20179 35.7273 9.15301 35.6666 9.15301 35.5C9.15301 35.3182 9.10724 35.2727 8.92418 35.2727C8.75641 35.2727 8.69536 35.2243 8.69536 35.0909C8.69536 34.9697 8.63431 34.9091 8.51229 34.9091C8.39303 34.9091 8.32924 34.8485 8.32924 34.7353C8.32924 34.6039 8.24155 34.5467 7.96998 34.5012C7.63928 34.4456 7.60606 34.4131 7.55123 34.0909C7.4964 33.7687 7.46318 33.7362 7.13248 33.6806C6.78604 33.6225 6.77322 33.6076 6.77322 33.2647C6.77322 32.946 6.74952 32.9091 6.5444 32.9091C6.37662 32.9091 6.31557 32.8606 6.31557 32.7273C6.31557 32.6061 6.25452 32.5455 6.13251 32.5455C5.99824 32.5455 5.94945 32.4848 5.94945 32.3182C5.94945 32.1364 5.90369 32.0909 5.72063 32.0909C5.55285 32.0909 5.4918 32.0425 5.4918 31.9091C5.4918 31.7879 5.43075 31.7273 5.30874 31.7273C5.18948 31.7273 5.12568 31.6666 5.12568 31.5535C5.12568 31.4215 5.03745 31.3648 4.75956 31.3182C4.40534 31.2587 4.39344 31.2452 4.39344 30.9011C4.39344 30.5824 4.36974 30.5455 4.16462 30.5455C3.95446 30.5455 3.93579 30.5121 3.93579 30.1364C3.93579 29.8498 3.89808 29.7273 3.80994 29.7273C3.74074 29.7273 3.65836 29.5995 3.62688 29.4432C3.59539 29.2869 3.56967 23.708 3.56967 17.0455C3.56967 10.383 3.59539 4.804 3.62688 4.64773C3.66651 4.45073 3.73671 4.36364 3.8557 4.36364C3.96371 4.36364 4.02732 4.29918 4.02732 4.18982C4.02732 4.05782 4.11556 4.00118 4.39344 3.95455C4.67133 3.90791 4.75956 3.85127 4.75956 3.71927C4.75956 3.54845 5.26096 3.54545 33.5 3.54545C61.739 3.54545 62.2404 3.54845 62.2404 3.71927C62.2404 3.85036 62.3278 3.90782 62.5964 3.95282C63.0484 4.02873 63.0642 4.09982 63.0642 6.05682C63.0642 7.467 63.0549 7.54545 62.8876 7.54545C62.774 7.54545 62.7004 7.61855 62.6816 7.75C62.6628 7.88145 62.5787 7.96491 62.4464 7.98364C62.314 8.00227 62.2404 8.07536 62.2404 8.18818C62.2404 8.303 62.1772 8.36364 62.0574 8.36364C61.9354 8.36364 61.8743 8.42427 61.8743 8.54545C61.8743 8.66664 61.8133 8.72727 61.6913 8.72727C61.5692 8.72727 61.5082 8.78791 61.5082 8.90909C61.5082 9.04245 61.4471 9.09091 61.2794 9.09091C61.0963 9.09091 61.0505 9.13636 61.0505 9.31818C61.0505 9.48482 61.0018 9.54545 60.8675 9.54545C60.7455 9.54545 60.6844 9.60609 60.6844 9.72727C60.6844 9.86064 60.6234 9.90909 60.4556 9.90909C60.2725 9.90909 60.2268 9.95455 60.2268 10.1364C60.2268 10.303 60.178 10.3636 60.0437 10.3636C59.9217 10.3636 59.8607 10.4243 59.8607 10.5455C59.8607 10.6666 59.7996 10.7273 59.6776 10.7273C59.5578 10.7273 59.4945 10.7879 59.4945 10.9027C59.4945 11.0155 59.4209 11.0886 59.2886 11.1073C59.1562 11.126 59.0722 11.2095 59.0534 11.3409C59.0346 11.4724 58.961 11.5455 58.8474 11.5455C58.7318 11.5455 58.6708 11.6083 58.6708 11.7273C58.6708 11.8485 58.6097 11.9091 58.4877 11.9091C58.3657 11.9091 58.3046 11.9697 58.3046 12.0909C58.3046 12.2243 58.2436 12.2727 58.0758 12.2727C57.8928 12.2727 57.847 12.3182 57.847 12.5C57.847 12.6666 57.7982 12.7273 57.6639 12.7273C57.5419 12.7273 57.4809 12.7879 57.4809 12.9091C57.4809 13.0281 57.4198 13.0909 57.3042 13.0909C57.1906 13.0909 57.117 13.164 57.0983 13.2955C57.0794 13.4269 56.9954 13.5104 56.863 13.5291C56.7307 13.5477 56.6571 13.6208 56.6571 13.7336C56.6571 13.8485 56.5939 13.9091 56.474 13.9091C56.352 13.9091 56.291 13.9697 56.291 14.0909C56.291 14.2099 56.2299 14.2727 56.1143 14.2727C56.0007 14.2727 55.9272 14.3458 55.9084 14.4773C55.8895 14.6087 55.8055 14.6922 55.6732 14.7109C55.5408 14.7295 55.4672 14.8026 55.4672 14.9155C55.4672 15.0303 55.404 15.0909 55.2842 15.0909C55.1621 15.0909 55.1011 15.1515 55.1011 15.2727C55.1011 15.4061 55.04 15.4545 54.8723 15.4545C54.6892 15.4545 54.6434 15.5 54.6434 15.6818C54.6434 15.8485 54.5947 15.9091 54.4604 15.9091C54.3384 15.9091 54.2773 15.9697 54.2773 16.0909C54.2773 16.2121 54.2163 16.2727 54.0943 16.2727C53.9695 16.2727 53.9112 16.3334 53.9112 16.4631C53.9112 16.5738 53.8382 16.6724 53.7366 16.6987C53.6405 16.7236 53.5414 16.8221 53.5163 16.9175C53.4898 17.0185 53.3906 17.0909 53.2791 17.0909C53.1485 17.0909 53.0874 17.1488 53.0874 17.2727C53.0874 17.3939 53.0264 17.4545 52.9044 17.4545C52.7824 17.4545 52.7213 17.5152 52.7213 17.6364C52.7213 17.7697 52.6603 17.8182 52.4925 17.8182C52.3094 17.8182 52.2637 17.8636 52.2637 18.0455C52.2637 18.2121 52.2149 18.2727 52.0806 18.2727C51.9586 18.2727 51.8975 18.3334 51.8975 18.4545C51.8975 18.5735 51.8365 18.6364 51.7209 18.6364C51.6073 18.6364 51.5337 18.7095 51.5149 18.8409C51.4961 18.9724 51.4121 19.0558 51.2797 19.0745C51.1474 19.0932 51.0738 19.1663 51.0738 19.2791C51.0738 19.3939 51.0105 19.4545 50.8907 19.4545C50.7687 19.4545 50.7076 19.5152 50.7076 19.6364C50.7076 19.7554 50.6466 19.8182 50.531 19.8182C50.4174 19.8182 50.3438 19.8913 50.3251 20.0227C50.3062 20.1542 50.2222 20.2376 50.0898 20.2564C49.9575 20.275 49.8839 20.3481 49.8839 20.4609C49.8839 20.5757 49.8206 20.6364 49.7008 20.6364C49.5788 20.6364 49.5178 20.697 49.5178 20.8182C49.5178 20.9515 49.4567 21 49.2889 21C49.1059 21 49.0601 21.0455 49.0601 21.2273C49.0601 21.3939 49.0113 21.4545 48.877 21.4545C48.755 21.4545 48.694 21.5152 48.694 21.6364C48.694 21.7575 48.6329 21.8182 48.5109 21.8182C48.3889 21.8182 48.3279 21.8788 48.3279 22C48.3279 22.1334 48.2668 22.1818 48.099 22.1818C47.916 22.1818 47.8702 22.2273 47.8702 22.4091C47.8702 22.5757 47.8214 22.6364 47.6872 22.6364C47.5651 22.6364 47.5041 22.697 47.5041 22.8182C47.5041 22.9372 47.4431 23 47.3274 23C47.2139 23 47.1403 23.0731 47.1215 23.2045C47.1026 23.336 47.0186 23.4195 46.8863 23.4382C46.7539 23.4568 46.6803 23.5299 46.6803 23.6427C46.6803 23.7575 46.6171 23.8182 46.4973 23.8182C46.3753 23.8182 46.3142 23.8788 46.3142 24C46.3142 24.1334 46.2532 24.1818 46.0854 24.1818C45.9023 24.1818 45.8566 24.2273 45.8566 24.4091C45.8566 24.5757 45.8078 24.6364 45.6735 24.6364C45.5515 24.6364 45.4904 24.697 45.4904 24.8182C45.4904 24.9394 45.4294 25 45.3074 25C45.1854 25 45.1243 25.0606 45.1243 25.1818C45.1243 25.3152 45.0633 25.3636 44.8955 25.3636C44.7124 25.3636 44.6667 25.4091 44.6667 25.5909C44.6667 25.7575 44.6179 25.8182 44.4836 25.8182C44.3616 25.8182 44.3005 25.8788 44.3005 26C44.3005 26.1212 44.2395 26.1818 44.1175 26.1818C43.9977 26.1818 43.9344 26.2425 43.9344 26.3573C43.9344 26.4701 43.8608 26.5432 43.7285 26.5618C43.5961 26.5805 43.5121 26.664 43.4933 26.7955C43.4745 26.9269 43.4009 27 43.2873 27C43.1717 27 43.1107 27.0628 43.1107 27.1818C43.1107 27.3008 43.0496 27.3636 42.934 27.3636C42.8204 27.3636 42.7468 27.4367 42.7281 27.5682C42.7092 27.6996 42.6252 27.7831 42.4928 27.8018C42.3605 27.8205 42.2869 27.8935 42.2869 28.0064C42.2869 28.1212 42.2236 28.1818 42.1038 28.1818C41.9818 28.1818 41.9208 28.2425 41.9208 28.3636C41.9208 28.4826 41.8597 28.5455 41.7441 28.5455C41.6305 28.5455 41.5569 28.6185 41.5382 28.75C41.5193 28.8815 41.4353 28.9649 41.3029 28.9836C41.1706 29.0023 41.097 29.0754 41.097 29.1882C41.097 29.303 41.0337 29.3636 40.9139 29.3636C40.7919 29.3636 40.7309 29.4243 40.7309 29.5455C40.7309 29.6788 40.6698 29.7273 40.502 29.7273C40.319 29.7273 40.2732 29.7727 40.2732 29.9545C40.2732 30.1212 40.2244 30.1818 40.0902 30.1818C39.9682 30.1818 39.9071 30.2425 39.9071 30.3636C39.9071 30.4848 39.8461 30.5455 39.724 30.5455C39.5993 30.5455 39.541 30.6061 39.541 30.7358C39.541 30.8465 39.468 30.9451 39.3663 30.9715C39.2703 30.9964 39.1712 31.0948 39.1461 31.1902C39.1196 31.2912 39.0204 31.3636 38.9089 31.3636C38.7783 31.3636 38.7172 31.4215 38.7172 31.5455C38.7172 31.6666 38.6562 31.7273 38.5342 31.7273C38.4121 31.7273 38.3511 31.7879 38.3511 31.9091C38.3511 32.0425 38.29 32.0909 38.1223 32.0909C37.9392 32.0909 37.8934 32.1364 37.8934 32.3182C37.8934 32.4848 37.8447 32.5455 37.7104 32.5455C37.5884 32.5455 37.5273 32.6061 37.5273 32.7273C37.5273 32.8463 37.4663 32.9091 37.3507 32.9091C37.2371 32.9091 37.1635 32.9822 37.1447 33.1136C37.1259 33.2451 37.0418 33.3285 36.9095 33.3473C36.7771 33.3659 36.7036 33.439 36.7036 33.5518C36.7036 33.6666 36.6403 33.7273 36.5205 33.7273C36.3985 33.7273 36.3374 33.7879 36.3374 33.9091C36.3374 34.0281 36.2764 34.0909 36.1608 34.0909C36.0472 34.0909 35.9736 34.164 35.9548 34.2955C35.936 34.4269 35.852 34.5104 35.7196 34.5291C35.5872 34.5477 35.5137 34.6208 35.5137 34.7336C35.5137 34.8485 35.4504 34.9091 35.3306 34.9091C35.2086 34.9091 35.1475 34.9697 35.1475 35.0909C35.1475 35.2243 35.0865 35.2727 34.9187 35.2727C34.7357 35.2727 34.6899 35.3182 34.6899 35.5C34.6899 35.6666 34.6411 35.7273 34.5068 35.7273C34.3848 35.7273 34.3238 35.7879 34.3238 35.9091C34.3238 36.0755 34.2627 36.0909 33.603 36.0909C33.2066 36.0909 32.7535 36.0654 32.5961 36.0341C32.3348 35.9822 32.3101 35.9468 32.3101 35.625C32.3101 35.3098 32.286 35.2727 32.0813 35.2727C31.9135 35.2727 31.8525 35.2243 31.8525 35.0909C31.8525 34.9697 31.7914 34.9091 31.6694 34.9091C31.5474 34.9091 31.4863 34.8485 31.4863 34.7273C31.4863 34.6061 31.4253 34.5455 31.3033 34.5455C31.169 34.5455 31.1202 34.4848 31.1202 34.3182C31.1202 34.1364 31.0745 34.0909 30.8914 34.0909C30.7271 34.0909 30.6626 34.0419 30.6626 33.9171C30.6626 33.7851 30.5743 33.7285 30.2964 33.6818C29.9422 33.6224 29.9303 33.6088 29.9303 33.2647C29.9303 32.946 29.9066 32.9091 29.7015 32.9091C29.5337 32.9091 29.4727 32.8606 29.4727 32.7273C29.4727 32.6061 29.4116 32.5455 29.2896 32.5455C29.1553 32.5455 29.1066 32.4848 29.1066 32.3182C29.1066 32.1145 29.0694 32.0909 28.7485 32.0909C28.4032 32.0909 28.3882 32.0782 28.3297 31.7341C28.2738 31.4056 28.241 31.3726 27.9167 31.3182C27.5937 31.264 27.5593 31.2298 27.5048 30.9091C27.45 30.5869 27.4167 30.5544 27.086 30.4988C26.7396 30.4407 26.7268 30.4258 26.7268 30.0829V29.7273H26.3149H25.903V29.3716C25.903 29.0287 25.8902 29.0138 25.5438 28.9557C25.2131 28.9002 25.1798 28.8676 25.125 28.5455C25.0702 28.2233 25.0369 28.1907 24.7062 28.1352C24.4347 28.0896 24.347 28.0325 24.347 27.9011C24.347 27.7879 24.2832 27.7273 24.1639 27.7273C24.0419 27.7273 23.9809 27.6666 23.9809 27.5455C23.9809 27.4121 23.9198 27.3636 23.752 27.3636C23.5469 27.3636 23.5232 27.3267 23.5232 27.008C23.5232 26.6651 23.5104 26.6502 23.164 26.5921C22.8333 26.5365 22.8 26.504 22.7452 26.1818C22.6904 25.8596 22.6572 25.8271 22.3265 25.7715C22.0549 25.726 21.9672 25.6688 21.9672 25.5375C21.9672 25.4126 21.9027 25.3636 21.7384 25.3636C21.5706 25.3636 21.5096 25.3152 21.5096 25.1818C21.5096 25.0143 21.4485 25 20.7316 25C20.0146 25 19.9536 25.0143 19.9536 25.1818C19.9536 25.303 19.8925 25.3636 19.7705 25.3636C19.6507 25.3636 19.5874 25.4243 19.5874 25.5391C19.5874 25.6519 19.5138 25.725 19.3815 25.7436C19.2491 25.7624 19.1651 25.8458 19.1463 25.9773C19.1275 26.1087 19.0539 26.1818 18.9403 26.1818C18.7797 26.1818 18.7637 26.2517 18.7637 26.9545C18.7637 27.6574 18.7797 27.7273 18.9403 27.7273C19.0539 27.7273 19.1275 27.8004 19.1463 27.9318C19.1651 28.0633 19.2491 28.1467 19.3815 28.1655C19.5138 28.1841 19.5874 28.2572 19.5874 28.37C19.5874 28.4848 19.6507 28.5455 19.7705 28.5455C19.8925 28.5455 19.9536 28.6061 19.9536 28.7273C19.9536 28.8485 20.0146 28.9091 20.1366 28.9091C20.2614 28.9091 20.3197 28.9697 20.3197 29.0995C20.3197 29.2133 20.3932 29.3088 20.5027 29.3373C20.6041 29.3636 20.6858 29.4613 20.6858 29.5561C20.6858 29.6781 20.7515 29.7273 20.9146 29.7273C21.0824 29.7273 21.1434 29.7757 21.1434 29.9091C21.1434 30.0281 21.2045 30.0909 21.3201 30.0909C21.4337 30.0909 21.5073 30.164 21.526 30.2955C21.5449 30.4269 21.6289 30.5104 21.7613 30.5291C21.8936 30.5477 21.9672 30.6208 21.9672 30.7336C21.9672 30.8485 22.0305 30.9091 22.1503 30.9091C22.2723 30.9091 22.3333 30.9697 22.3333 31.0909C22.3333 31.2099 22.3944 31.2727 22.51 31.2727C22.6236 31.2727 22.6972 31.3458 22.7159 31.4773C22.7348 31.6087 22.8188 31.6922 22.9512 31.7109C23.0835 31.7295 23.1571 31.8026 23.1571 31.9155C23.1571 32.0303 23.2204 32.0909 23.3402 32.0909C23.4744 32.0909 23.5232 32.1515 23.5232 32.3182C23.5232 32.4802 23.5727 32.5455 23.6956 32.5455C23.791 32.5455 23.8893 32.6266 23.9159 32.7273C23.9445 32.8361 24.0407 32.9091 24.1553 32.9091C24.2859 32.9091 24.347 32.967 24.347 33.0909C24.347 33.2099 24.408 33.2727 24.5236 33.2727C24.6372 33.2727 24.7108 33.3458 24.7296 33.4773C24.7484 33.6087 24.8325 33.6922 24.9648 33.7109C25.0972 33.7295 25.1708 33.8026 25.1708 33.9155C25.1708 34.0303 25.234 34.0909 25.3538 34.0909C25.4758 34.0909 25.5369 34.1515 25.5369 34.2727C25.5369 34.3917 25.5979 34.4545 25.7135 34.4545C25.8271 34.4545 25.9007 34.5276 25.9195 34.6591C25.9383 34.7905 26.0224 34.874 26.1547 34.8927C26.2871 34.9114 26.3607 34.9845 26.3607 35.0973C26.3607 35.2121 26.4239 35.2727 26.5437 35.2727C26.6657 35.2727 26.7268 35.3334 26.7268 35.4545C26.7268 35.5735 26.7878 35.6364 26.9034 35.6364C27.017 35.6364 27.0906 35.7095 27.1094 35.8409C27.1282 35.9724 27.2123 36.0558 27.3446 36.0745C27.477 36.0932 27.5505 36.1663 27.5505 36.2791C27.5505 36.3939 27.6138 36.4545 27.7336 36.4545C27.8534 36.4545 27.9167 36.5152 27.9167 36.63C27.9167 36.7428 27.9903 36.8159 28.1226 36.8345C28.255 36.8533 28.339 36.9367 28.3578 37.0682C28.3739 37.1806 28.446 37.2727 28.518 37.2727C28.59 37.2727 28.6489 37.3545 28.6489 37.4545C28.6489 37.5865 28.71 37.6364 28.8713 37.6364C29.0324 37.6364 29.1019 37.6928 29.123 37.8409C29.1419 37.9724 29.2259 38.0558 29.3583 38.0745C29.4906 38.0932 29.5642 38.1663 29.5642 38.2791C29.5642 38.3939 29.6275 38.4545 29.7473 38.4545C29.8693 38.4545 29.9303 38.5152 29.9303 38.6364C29.9303 38.7575 29.9914 38.8182 30.1134 38.8182C30.2317 38.8182 30.2964 38.8788 30.2964 38.9896C30.2964 39.1233 30.3875 39.1747 30.7083 39.2225C31.0336 39.271 31.1202 39.3209 31.1202 39.4601C31.1202 39.5875 31.1836 39.6364 31.349 39.6364C31.5168 39.6364 31.5779 39.6848 31.5779 39.8182C31.5779 39.9938 31.6389 40 33.3627 40C35.0865 40 35.1475 39.9938 35.1475 39.8182C35.1475 39.6633 35.2086 39.6364 35.5594 39.6364C35.9039 39.6364 35.9713 39.6079 35.9713 39.4625C35.9713 39.3305 36.0595 39.2739 36.3374 39.2273C36.6153 39.1806 36.7036 39.124 36.7036 38.992C36.7036 38.8788 36.7673 38.8182 36.8866 38.8182C37.0064 38.8182 37.0697 38.7575 37.0697 38.6427C37.0697 38.5299 37.1433 38.4568 37.2756 38.4382C37.408 38.4195 37.492 38.336 37.5108 38.2045C37.5296 38.0731 37.6032 38 37.7168 38C37.8324 38 37.8934 37.9372 37.8934 37.8182C37.8934 37.697 37.9545 37.6364 38.0765 37.6364C38.1963 37.6364 38.2596 37.5757 38.2596 37.4609C38.2596 37.3481 38.3332 37.275 38.4655 37.2564C38.5979 37.2376 38.6819 37.1542 38.7007 37.0227C38.7195 36.8913 38.7931 36.8182 38.9067 36.8182C39.0223 36.8182 39.0833 36.7554 39.0833 36.6364C39.0833 36.5174 39.1444 36.4545 39.26 36.4545C39.3736 36.4545 39.4472 36.3815 39.4659 36.25C39.4848 36.1185 39.5688 36.0351 39.7012 36.0164C39.8335 35.9977 39.9071 35.9246 39.9071 35.8118C39.9071 35.697 39.9704 35.6364 40.0902 35.6364C40.2122 35.6364 40.2732 35.5757 40.2732 35.4545C40.2732 35.3334 40.3343 35.2727 40.4563 35.2727C40.5761 35.2727 40.6393 35.2121 40.6393 35.0973C40.6393 34.9845 40.7129 34.9114 40.8453 34.8927C40.9776 34.874 41.0617 34.7905 41.0805 34.6591C41.0993 34.5276 41.1729 34.4545 41.2865 34.4545C41.4021 34.4545 41.4631 34.3917 41.4631 34.2727C41.4631 34.1537 41.5242 34.0909 41.6398 34.0909C41.7534 34.0909 41.8269 34.0178 41.8457 33.8864C41.8646 33.7549 41.9486 33.6715 42.0809 33.6527C42.2133 33.6341 42.2869 33.561 42.2869 33.4482C42.2869 33.3334 42.3501 33.2727 42.4699 33.2727C42.5898 33.2727 42.653 33.2121 42.653 33.0973C42.653 32.9845 42.7266 32.9114 42.8589 32.8927C42.9913 32.874 43.0753 32.7905 43.0942 32.6591C43.1129 32.5276 43.1865 32.4545 43.3001 32.4545C43.4157 32.4545 43.4768 32.3917 43.4768 32.2727C43.4768 32.1515 43.5378 32.0909 43.6598 32.0909C43.7846 32.0909 43.8429 32.0303 43.8429 31.9005C43.8429 31.7898 43.9158 31.6913 44.0175 31.6649C44.1136 31.64 44.2127 31.5415 44.2378 31.4462C44.2643 31.3452 44.3635 31.2727 44.475 31.2727C44.6056 31.2727 44.6667 31.2148 44.6667 31.0909C44.6667 30.9697 44.7277 30.9091 44.8497 30.9091C44.9695 30.9091 45.0328 30.8485 45.0328 30.7336C45.0328 30.6208 45.1064 30.5477 45.2387 30.5291C45.3711 30.5104 45.4551 30.4269 45.474 30.2955C45.4927 30.164 45.5663 30.0909 45.6799 30.0909C45.7955 30.0909 45.8566 30.0281 45.8566 29.9091C45.8566 29.7901 45.9176 29.7273 46.0332 29.7273C46.1468 29.7273 46.2204 29.6542 46.2392 29.5227C46.258 29.3913 46.342 29.3078 46.4744 29.2891C46.6067 29.2705 46.6803 29.1974 46.6803 29.0845C46.6803 28.9697 46.7436 28.9091 46.8634 28.9091C46.9854 28.9091 47.0464 28.8485 47.0464 28.7273C47.0464 28.6083 47.1075 28.5455 47.2231 28.5455C47.3367 28.5455 47.4103 28.4724 47.429 28.3409C47.4479 28.2095 47.5319 28.126 47.6643 28.1073C47.7966 28.0886 47.8702 28.0155 47.8702 27.9027C47.8702 27.7879 47.9335 27.7273 48.0533 27.7273C48.1731 27.7273 48.2363 27.6666 48.2363 27.5518C48.2363 27.439 48.3099 27.3659 48.4423 27.3473C48.5746 27.3285 48.6587 27.2451 48.6775 27.1136C48.6963 26.9822 48.7699 26.9091 48.8835 26.9091C48.9991 26.9091 49.0601 26.8463 49.0601 26.7273C49.0601 26.6061 49.1212 26.5455 49.2432 26.5455C49.363 26.5455 49.4262 26.4848 49.4262 26.37C49.4262 26.2572 49.4998 26.1841 49.6322 26.1655C49.7645 26.1467 49.8485 26.0633 49.8674 25.9318C49.8862 25.8004 49.9598 25.7273 50.0733 25.7273C50.1889 25.7273 50.25 25.6645 50.25 25.5455C50.25 25.4243 50.3111 25.3636 50.4331 25.3636C50.5529 25.3636 50.6161 25.303 50.6161 25.1882C50.6161 25.0754 50.6897 25.0023 50.8221 24.9836C50.9544 24.9649 51.0384 24.8815 51.0573 24.75C51.0761 24.6185 51.1497 24.5455 51.2632 24.5455C51.3788 24.5455 51.4399 24.4826 51.4399 24.3636C51.4399 24.2446 51.5009 24.1818 51.6165 24.1818C51.7301 24.1818 51.8037 24.1087 51.8225 23.9773C51.8413 23.8458 51.9254 23.7624 52.0577 23.7436C52.1901 23.725 52.2637 23.6519 52.2637 23.5391C52.2637 23.4243 52.3269 23.3636 52.4467 23.3636C52.5687 23.3636 52.6298 23.303 52.6298 23.1818C52.6298 23.0628 52.6908 23 52.8064 23C52.92 23 52.9936 22.9269 53.0124 22.7955C53.0312 22.664 53.1153 22.5805 53.2476 22.5618C53.38 22.5432 53.4536 22.4701 53.4536 22.3573C53.4536 22.2425 53.5168 22.1818 53.6366 22.1818C53.7564 22.1818 53.8197 22.1212 53.8197 22.0064C53.8197 21.8935 53.8933 21.8205 54.0256 21.8018C54.158 21.7831 54.242 21.6996 54.2608 21.5682C54.2796 21.4367 54.3532 21.3636 54.4668 21.3636C54.5824 21.3636 54.6434 21.3008 54.6434 21.1818C54.6434 21.0606 54.7045 21 54.8265 21C54.9463 21 55.0096 20.9394 55.0096 20.8245C55.0096 20.7117 55.0832 20.6386 55.2155 20.62C55.3479 20.6013 55.4319 20.5178 55.4507 20.3864C55.4695 20.2549 55.5431 20.1818 55.6567 20.1818C55.7723 20.1818 55.8333 20.119 55.8333 20C55.8333 19.881 55.8944 19.8182 56.01 19.8182C56.1236 19.8182 56.1972 19.7451 56.2159 19.6136C56.2348 19.4822 56.3188 19.3987 56.4512 19.38C56.5835 19.3614 56.6571 19.2883 56.6571 19.1755C56.6571 19.0606 56.7204 19 56.8402 19C56.9622 19 57.0232 18.9394 57.0232 18.8182C57.0232 18.6992 57.0843 18.6364 57.1999 18.6364C57.3135 18.6364 57.3871 18.5633 57.4058 18.4318C57.4247 18.3004 57.5087 18.2169 57.6411 18.1982C57.7734 18.1795 57.847 18.1065 57.847 17.9936C57.847 17.8788 57.9102 17.8182 58.0301 17.8182C58.1499 17.8182 58.2131 17.7575 58.2131 17.6427C58.2131 17.5299 58.2867 17.4568 58.4191 17.4382C58.5514 17.4195 58.6354 17.336 58.6543 17.2045C58.6731 17.0731 58.7466 17 58.8602 17C58.9758 17 59.0369 16.9372 59.0369 16.8182C59.0369 16.6992 59.0979 16.6364 59.2135 16.6364C59.3271 16.6364 59.4007 16.5633 59.4195 16.4318C59.4383 16.3004 59.5224 16.2169 59.6547 16.1982C59.7871 16.1795 59.8607 16.1065 59.8607 15.9936C59.8607 15.8788 59.9239 15.8182 60.0437 15.8182C60.1657 15.8182 60.2268 15.7575 60.2268 15.6364C60.2268 15.5174 60.2878 15.4545 60.4034 15.4545C60.517 15.4545 60.5906 15.3815 60.6094 15.25C60.6282 15.1185 60.7122 15.0351 60.8446 15.0164C60.977 14.9977 61.0505 14.9246 61.0505 14.8118C61.0505 14.697 61.1138 14.6364 61.2336 14.6364C61.3556 14.6364 61.4167 14.5757 61.4167 14.4545C61.4167 14.3355 61.4777 14.2727 61.5933 14.2727C61.7069 14.2727 61.7805 14.1996 61.7993 14.0682C61.8181 13.9367 61.9021 13.8533 62.0345 13.8345C62.1668 13.8159 62.2404 13.7428 62.2404 13.63C62.2404 13.5152 62.3037 13.4545 62.4235 13.4545C62.5433 13.4545 62.6066 13.3939 62.6066 13.2791C62.6066 13.1663 62.6801 13.0932 62.8125 13.0745C62.9449 13.0558 63.0289 12.9724 63.0477 12.8409C63.0665 12.7095 63.1401 12.6364 63.2537 12.6364C63.3693 12.6364 63.4303 12.5735 63.4303 12.4545C63.4303 12.3334 63.4914 12.2727 63.6134 12.2727C63.7332 12.2727 63.7964 12.2121 63.7964 12.0973C63.7964 11.9845 63.87 11.9114 64.0024 11.8927C64.1347 11.874 64.2188 11.7905 64.2376 11.6591C64.2564 11.5276 64.33 11.4545 64.4436 11.4545C64.5592 11.4545 64.6202 11.3917 64.6202 11.2727C64.6202 11.1537 64.6813 11.0909 64.7969 11.0909C64.9105 11.0909 64.984 11.0178 65.0028 10.8864C65.0217 10.7549 65.1057 10.6715 65.238 10.6527C65.3704 10.6341 65.444 10.561 65.444 10.4482C65.444 10.3334 65.5072 10.2727 65.6271 10.2727C65.7796 10.2727 65.8101 10.2121 65.8101 9.90909C65.8101 9.60609 65.8406 9.54545 65.9932 9.54545C66.1274 9.54545 66.1762 9.48482 66.1762 9.31818C66.1762 9.13636 66.222 9.09091 66.4051 9.09091C66.6312 9.09091 66.6339 9.08182 66.6339 8.31818C66.6339 7.60609 66.6482 7.54545 66.8169 7.54545C66.9939 7.54545 67 7.48482 67 5.72727C67 3.96973 66.9939 3.90909 66.8169 3.90909C66.6493 3.90909 66.6339 3.84845 66.6339 3.18818C66.6339 2.50973 66.6217 2.46545 66.4279 2.43818C66.2956 2.41945 66.2116 2.336 66.1927 2.20455C66.1739 2.07309 66.1003 2 65.9868 2C65.8594 2 65.8101 1.93664 65.8101 1.77273C65.8101 1.60609 65.7613 1.54545 65.6271 1.54545C65.505 1.54545 65.444 1.48482 65.444 1.36364C65.444 1.23027 65.3829 1.18182 65.2152 1.18182C65.0509 1.18182 64.9863 1.13282 64.9863 1.008C64.9863 0.876727 64.8988 0.819454 64.6292 0.774273C64.3845 0.733182 64.2575 0.659091 64.2259 0.539C64.1898 0.401818 64.0981 0.363636 63.805 0.363636C63.4914 0.363636 63.4303 0.334 63.4303 0.181818C63.4303 0.000363632 63.3693 0 33.5 0C3.63072 0 3.56967 0.000363632 3.56967 0.181818ZM59.403 29.5455C59.403 29.7086 59.342 29.7273 58.8081 29.7273C58.2742 29.7273 58.2131 29.7459 58.2131 29.9091C58.2131 30.0303 58.1521 30.0909 58.0301 30.0909C57.8958 30.0909 57.847 30.1515 57.847 30.3182C57.847 30.5269 57.8134 30.5455 57.4351 30.5455C57.0843 30.5455 57.0232 30.5724 57.0232 30.7273C57.0232 30.8485 56.9622 30.9091 56.8402 30.9091C56.7059 30.9091 56.6571 30.9697 56.6571 31.1364C56.6571 31.303 56.6083 31.3636 56.474 31.3636C56.3215 31.3636 56.291 31.4243 56.291 31.7273C56.291 32.0545 56.2681 32.0909 56.0622 32.0909C55.8791 32.0909 55.8333 32.1364 55.8333 32.3182C55.8333 32.4848 55.7845 32.5455 55.6503 32.5455C55.4816 32.5455 55.4672 32.6061 55.4672 33.3182C55.4672 34.0303 55.4528 34.0909 55.2842 34.0909C55.1122 34.0909 55.1011 34.1515 55.1011 35.0909C55.1011 36.0303 55.1122 36.0909 55.2842 36.0909C55.4528 36.0909 55.4672 36.1515 55.4672 36.8636C55.4672 37.5757 55.4816 37.6364 55.6503 37.6364C55.775 37.6364 55.8333 37.697 55.8333 37.8267C55.8333 37.9408 55.9069 38.0361 56.017 38.0647C56.1465 38.0984 56.2175 38.2165 56.2576 38.4653C56.3001 38.7295 56.3574 38.8182 56.4858 38.8182C56.594 38.8182 56.6571 38.8828 56.6571 38.9936C56.6571 39.1065 56.7307 39.1795 56.863 39.1982C56.9954 39.2169 57.0794 39.3004 57.0983 39.4318C57.117 39.5633 57.1906 39.6364 57.3042 39.6364C57.4198 39.6364 57.4809 39.6992 57.4809 39.8182C57.4809 39.9704 57.5419 40 57.8556 40C58.1487 40 58.2403 40.0382 58.2765 40.1754C58.308 40.2955 58.4351 40.3695 58.6797 40.4106C58.9494 40.4558 59.0369 40.5131 59.0369 40.6444C59.0369 40.8103 59.1288 40.8182 61.0505 40.8182C62.9723 40.8182 63.0642 40.8103 63.0642 40.6444C63.0642 40.5124 63.1524 40.4557 63.4303 40.4091C63.7082 40.3625 63.7964 40.3058 63.7964 40.1738C63.7964 40.0285 63.8638 40 64.2083 40C64.5592 40 64.6202 39.9731 64.6202 39.8182C64.6202 39.6992 64.6813 39.6364 64.7969 39.6364C64.9105 39.6364 64.984 39.5633 65.0028 39.4318C65.0217 39.3004 65.1057 39.2169 65.238 39.1982C65.3704 39.1795 65.444 39.1065 65.444 38.9936C65.444 38.8788 65.5072 38.8182 65.6271 38.8182C65.7796 38.8182 65.8101 38.7575 65.8101 38.4545C65.8101 38.1515 65.8406 38.0909 65.9932 38.0909C66.1274 38.0909 66.1762 38.0303 66.1762 37.8636C66.1762 37.6818 66.222 37.6364 66.4051 37.6364H66.6339V36.6364C66.6339 35.697 66.645 35.6364 66.8169 35.6364C66.9695 35.6364 67 35.5757 67 35.2727C67 34.9697 66.9695 34.9091 66.8169 34.9091C66.645 34.9091 66.6339 34.8485 66.6339 33.9091C66.6339 32.9803 66.6212 32.9091 66.4564 32.9091C66.3163 32.9091 66.266 32.8231 66.2172 32.5C66.1691 32.1814 66.1173 32.0909 65.9827 32.0909C65.8429 32.0909 65.8101 32.0231 65.8101 31.7336C65.8101 31.4323 65.7778 31.3717 65.6042 31.3473C65.4718 31.3285 65.3878 31.2451 65.3689 31.1136C65.3502 30.9822 65.2766 30.9091 65.163 30.9091C65.0474 30.9091 64.9863 30.8463 64.9863 30.7273C64.9863 30.5763 64.9253 30.5455 64.6266 30.5455C64.3232 30.5455 64.2622 30.5134 64.2376 30.3409C64.2188 30.2095 64.1347 30.126 64.0024 30.1073C63.87 30.0886 63.7964 30.0155 63.7964 29.9027C63.7964 29.7474 63.7283 29.7273 63.2015 29.7273C62.6676 29.7273 62.6066 29.7086 62.6066 29.5455C62.6066 29.3705 62.5455 29.3636 61.0048 29.3636C59.4641 29.3636 59.403 29.3705 59.403 29.5455Z" fill="#EF6C00"/>
</svg>
